<svg width="100" height="101" viewBox="0 0 100 101" fill="none" xmlns="http://www.w3.org/2000/svg">
<path d="M66.6663 92.1668V76.0418C66.8226 74.055 66.5542 72.0577 65.8789 70.1826C65.2036 68.3076 64.1369 66.5977 62.7497 65.1668C75.833 63.7085 89.583 58.7501 89.583 36.0001C89.5819 30.1828 87.3442 24.5885 83.333 20.3751C85.2324 15.2856 85.0981 9.65994 82.958 4.66681C82.958 4.66681 78.0413 3.20848 66.6663 10.8335C57.1164 8.24524 47.0496 8.24524 37.4997 10.8335C26.1247 3.20848 21.208 4.66681 21.208 4.66681C19.0679 9.65994 18.9336 15.2856 20.833 20.3751C16.7919 24.6197 14.5519 30.2646 14.583 36.1251C14.583 58.7085 28.333 63.6668 41.4163 65.2918C40.0455 66.7084 38.9883 68.3977 38.3135 70.2498C37.6386 72.102 37.3614 74.0754 37.4997 76.0418V92.1668M37.4997 79.6668C16.6663 85.9168 16.6663 69.2501 8.33301 67.1668L37.4997 79.6668Z" stroke="white" stroke-width="3.33" stroke-linecap="round" stroke-linejoin="round"/>
</svg>
