<svg width="100" height="101" viewBox="0 0 100 101" fill="none" xmlns="http://www.w3.org/2000/svg">
<path d="M70.833 8.83337H29.1663C17.6604 8.83337 8.33301 18.1608 8.33301 29.6667V71.3334C8.33301 82.8393 17.6604 92.1667 29.1663 92.1667H70.833C82.3389 92.1667 91.6664 82.8393 91.6664 71.3334V29.6667C91.6664 18.1608 82.3389 8.83337 70.833 8.83337Z" stroke="white" stroke-width="3.33" stroke-linecap="round" stroke-linejoin="round"/>
<path d="M66.6668 47.875C67.181 51.3427 66.5887 54.8843 64.9741 57.9959C63.3595 61.1076 60.8049 63.6309 57.6735 65.207C54.5422 66.7831 50.9936 67.3317 47.5325 66.7748C44.0714 66.2178 40.8741 64.5837 38.3952 62.1049C35.9164 59.626 34.2823 56.4287 33.7254 52.9676C33.1684 49.5065 33.717 45.9579 35.2931 42.8266C36.8692 39.6953 39.3925 37.1406 42.5042 35.526C45.6158 33.9115 49.1574 33.3192 52.6251 33.8334C56.1623 34.3579 59.437 36.0061 61.9655 38.5346C64.494 41.0632 66.1422 44.3379 66.6668 47.875Z" stroke="white" stroke-width="3.33" stroke-linecap="round" stroke-linejoin="round"/>
<path d="M72.917 27.5834H72.9586" stroke="white" stroke-width="3.33" stroke-linecap="round" stroke-linejoin="round"/>
</svg>
