<svg width="100" height="101" viewBox="0 0 100 101" fill="none" xmlns="http://www.w3.org/2000/svg">
<path d="M66.667 33.8334C73.2974 33.8334 79.6563 36.4673 84.3447 41.1557C89.0331 45.8441 91.667 52.203 91.667 58.8334V88H75.0003V58.8334C75.0003 56.6232 74.1223 54.5036 72.5595 52.9408C70.9967 51.378 68.8771 50.5 66.667 50.5C64.4569 50.5 62.3372 51.378 60.7744 52.9408C59.2116 54.5036 58.3337 56.6232 58.3337 58.8334V88H41.667V58.8334C41.667 52.203 44.3009 45.8441 48.9893 41.1557C53.6777 36.4673 60.0366 33.8334 66.667 33.8334V33.8334Z" stroke="white" stroke-width="3.33333" stroke-linecap="round" stroke-linejoin="round"/>
<path d="M24.9997 38H8.33301V88H24.9997V38Z" stroke="white" stroke-width="3.33333" stroke-linecap="round" stroke-linejoin="round"/>
<path d="M16.6663 25.5C21.2687 25.5 24.9997 21.7691 24.9997 17.1667C24.9997 12.5643 21.2687 8.83337 16.6663 8.83337C12.064 8.83337 8.33301 12.5643 8.33301 17.1667C8.33301 21.7691 12.064 25.5 16.6663 25.5Z" stroke="white" stroke-width="3.33333" stroke-linecap="round" stroke-linejoin="round"/>
</svg>
