<svg width="100" height="101" viewBox="0 0 100 101" fill="none" xmlns="http://www.w3.org/2000/svg">
<path d="M95.8337 13C91.8436 15.8145 87.4258 17.9672 82.7503 19.375C80.2409 16.4897 76.9059 14.4446 73.1963 13.5164C69.4867 12.5882 65.5816 12.8217 62.009 14.1853C58.4364 15.5488 55.3688 17.9767 53.2211 21.1405C51.0733 24.3043 49.9491 28.0514 50.0003 31.875V36.0417C42.678 36.2316 35.4223 34.6076 28.8795 31.3144C22.3368 28.0212 16.71 23.161 12.5003 17.1667C12.5003 17.1667 -4.16634 54.6667 33.3337 71.3334C24.7525 77.1582 14.5301 80.0789 4.16699 79.6667C41.667 100.5 87.5003 79.6667 87.5003 31.75C87.4965 30.5894 87.3849 29.4317 87.167 28.2917C91.4195 24.0979 94.4204 18.803 95.8337 13V13Z" stroke="white" stroke-width="3.33" stroke-linecap="round" stroke-linejoin="round"/>
</svg>
