<svg width="76" height="76" viewBox="0 0 76 76" fill="none" xmlns="http://www.w3.org/2000/svg">
<path d="M18.8977 49H26.1591V33.2841C26.1591 30.3864 28 28.4602 30.4205 28.4602C32.8068 28.4602 34.4091 30.0966 34.4091 32.6705V49H41.4489V33.0114C41.4489 30.3011 43 28.4602 45.642 28.4602C47.9602 28.4602 49.6989 29.9091 49.6989 32.8239V49H56.9432V31.392C56.9432 25.7159 53.5682 22.4773 48.6932 22.4773C44.858 22.4773 41.875 24.4375 40.8011 27.4375H40.5284C39.6932 24.4034 37.017 22.4773 33.4205 22.4773C29.892 22.4773 27.2159 24.3523 26.125 27.4375H25.8182V22.8182H18.8977V49Z" fill="#E5E5E5"/>
<circle cx="38" cy="38" r="34" stroke="#E5E5E5" stroke-width="8"/>
</svg>
